<svg xmlns="http://www.w3.org/2000/svg" viewBox="0 0 512 512">
  <defs>
    <linearGradient id="grad1" x1="0%" y1="0%" x2="100%" y2="100%">
      <stop offset="0%" style="stop-color:#FF6B4A;stop-opacity:1" />
      <stop offset="100%" style="stop-color:#F05A28;stop-opacity:1" />
    </linearGradient>
  </defs>
  <rect width="512" height="512" fill="url(#grad1)" rx="30" ry="30"/>
  <path d="M360 256h-80v-40h120v40c0 88.37-71.63 160-160 160-88.37 0-160-71.63-160-160s71.63-160 160-160c39.67 0 76.13 14.54 104.4 38.6l-30.8 30.8C294.67 150.13 266.67 136 240 136c-66.27 0-120 53.73-120 120s53.73 120 120 120c57.53 0 105.6-40.27 117.07-93.33h-1.07v-26.67H360z" fill="#ffffff"/>
  <polygon points="280,216 360,216 360,296" fill="#ffffff" opacity="0.2"/> 
  <!-- Added subtle arrow hint for growth -->
</svg>
